:SAMPLES-PER-SECOND 24
:FULLY-SPECIFIED
:DEGREES
57
root  1.40603 41.4609 26.7955 12.035 -55.8505 -3.82312
RightUpLeg  -6.06732 -2.80623 -9.12911
RightLeg  14.3455 3.11079 0.00551669
RightFoot  2.07708 -1.9701 16.7155
RightToes  -2.08645e-008 3.77894e-005 6.81332e-007
Spine  -2.96273 1.20329 -1.14158
Spine1  5.82451 0.807042 1.82337
HEad  -32.7744 34.1689 -10.2606
LeftShoulder1  7.31753 -13.1207 -37.9138
LeftArm  -8.71761 16.1529 -26.8123
LeftForeArm  164.777 -62.0446 -160.886
LeftHand  -0.440258 0.536727 10.5461
RightShoulder  4.25042 7.06657 34.3173
RightArm  19.9944 -25.5138 29.3462
RightForeArm  159.208 70.4775 151.203
RightHand  -0.282776 9.05389 -2.64801
LeftUpLeg  -13.5138 8.97844 10.9581
LeftLeg  6.62431 13.4391 0.0708188
LeftFoot  14.6064 2.74835 -12.276
LeftToes  1.24767e-006 1.47042e-008 1.32732e-009
58
root  1.06272 41.875 25.7159 13.8092 -59.0988 -5.18579
RightUpLeg  -7.33018 -3.64051 -8.18942
RightLeg  13.3862 6.98922 1.07368
RightFoot  4.61962 -2.25161 16.1898
RightToes  -2.08645e-008 3.77894e-005 6.81332e-007
Spine  -3.13425 1.08803 -2.45778
Spine1  4.93758 0.560994 2.72661
HEad  -31.5838 36.0691 -10.5033
LeftShoulder1  7.27684 -13.0981 -37.7353
LeftArm  -5.22343 14.6281 -28.3638
LeftForeArm  165.729 -60.8588 -161.844
LeftHand  -0.40571 -0.540082 8.04985
RightShoulder  4.27791 7.13679 34.3096
RightArm  21.2621 -27.7869 24.646
RightForeArm  158.351 68.5143 153.827
RightHand  -0.2384 8.23005 -2.40632
LeftUpLeg  -12.5234 9.12592 13.1702
LeftLeg  5.45582 7.45902 -0.299766
LeftFoot  17.8255 2.78244 -11.0938
LeftToes  1.24767e-006 1.47042e-008 1.32732e-009
59
root  0.826558 41.5979 24.5704 14.5833 -62.4592 -5.83179
RightUpLeg  -10.4323 3.9019 -7.9011
RightLeg  18.8197 2.55568 0.760713
RightFoot  2.46123 -1.68593 13.9851
RightToes  -2.08645e-008 3.77894e-005 6.81332e-007
Spine  -3.31215 0.988662 -3.31842
Spine1  5.41737 0.566787 2.60251
HEad  -32.6477 37.7931 -11.3151
LeftShoulder1  6.64969 -12.4295 -35.7006
LeftArm  -2.27973 11.133 -30.2406
LeftForeArm  168.842 -60.4945 -162.386
LeftHand  -0.281749 -1.56712 4.85866
RightShoulder  4.23942 7.14679 33.9126
RightArm  20.8742 -27.4747 23.2124
RightForeArm  157.682 68.5914 153.643
RightHand  -0.296462 7.64149 -3.00352
LeftUpLeg  -13.1642 6.58869 14.2036
LeftLeg  10.9943 0.886812 1.0563
LeftFoot  14.3584 2.21243 -10.0815
LeftToes  1.24767e-006 1.47042e-008 1.32732e-009
60
root  0.686588 40.6049 23.4368 13.3156 -64.2517 -5.1012
RightUpLeg  -12.6788 7.68004 -7.5984
RightLeg  25.7623 1.68059 0.687818
RightFoot  -5.36515 -0.659136 11.8565
RightToes  -2.08645e-008 3.77894e-005 6.81332e-007
Spine  -1.49131 0.701385 -4.88714
Spine1  4.77873 0.0700259 3.95973
HEad  -34.4926 38.6308 -13.156
LeftShoulder1  6.38714 -12.122 -34.8656
LeftArm  0.0447734 6.48853 -30.1914
LeftForeArm  169.097 -61.0222 -162.048
LeftHand  -0.204234 -2.18873 3.32258
RightShoulder  4.12005 7.06677 33.0891
RightArm  18.8018 -26.8583 24.046
RightForeArm  156.392 69.5771 152.174
RightHand  -0.197188 7.90844 -2.08993
LeftUpLeg  -14.046 -1.7229 15.9347
LeftLeg  18.3976 4.36805 2.19364
LeftFoot  6.7592 2.01973 -13.0237
LeftToes  1.24767e-006 1.47042e-008 1.32732e-009
61
root  0.610719 39.3618 22.4344 11.8957 -64.9494 -5.08772
RightUpLeg  -12.9716 8.46849 -6.14737
RightLeg  30.328 1.91312 0.973096
RightFoot  -14.7313 0.145581 8.55087
RightToes  -2.08645e-008 3.77894e-005 6.81332e-007
Spine  0.907492 0.375515 -4.20373
Spine1  4.94804 -0.257618 3.70002
HEad  -37.2236 38.3994 -15.8928
LeftShoulder1  6.86789 -12.6137 -36.5494
LeftArm  0.5216 0.356413 -27.4007
LeftForeArm  168.937 -62.7088 -160.783
LeftHand  -0.273347 -2.54451 4.20828
RightShoulder  4.1442 7.0152 33.509
RightArm  15.804 -24.2365 25.1301
RightForeArm  152.486 71.9159 147.882
RightHand  -0.45661 7.3579 -4.51195
LeftUpLeg  -14.591 -6.4408 17.5154
LeftLeg  24.4054 8.70545 4.62465
LeftFoot  -1.12243 1.52743 -16.9953
LeftToes  1.24767e-006 1.47042e-008 1.32732e-009
62
root  0.521811 38.3817 21.6454 13.7845 -66.6651 -8.00278
RightUpLeg  -12.867 10.4467 -3.43616
RightLeg  31.8832 0.290482 -0.0491622
RightFoot  -21.2671 0.29824 5.0926
RightToes  -2.08645e-008 3.77894e-005 6.81332e-007
Spine  0.364843 0.436963 -0.914441
Spine1  7.92799 0.309275 1.2051
HEad  -40.1598 38.5306 -18.4235
LeftShoulder1  7.24669 -12.9834 -37.8533
LeftArm  -0.922206 -3.69232 -26.6533
LeftForeArm  172.315 -65.2827 -158.951
LeftHand  -0.325932 -2.72274 4.88758
RightShoulder  4.17616 6.93348 34.121
RightArm  12.7956 -19.9062 26.9639
RightForeArm  145.65 75.49 138.449
RightHand  -0.650201 7.2208 -6.32666
LeftUpLeg  -14.6541 -7.44162 19.5251
LeftLeg  28.2186 11.0021 6.67105
LeftFoot  -6.55696 0.787283 -17.7878
LeftToes  1.24767e-006 1.47042e-008 1.32732e-009
63
root  0.339871 38.1177 21.1416 15.4037 -69.1555 -9.3531
RightUpLeg  -12.8288 12.985 -2.34381
RightLeg  30.7502 -1.20763 -1.01239
RightFoot  -23.3948 0.21534 3.50897
RightToes  -2.08645e-008 3.77894e-005 6.81332e-007
Spine  -1.26059 0.809622 -0.457283
Spine1  9.56579 0.776809 0.776067
HEad  -42.0428 40.0163 -20.1855
LeftShoulder1  7.47865 -13.1859 -38.6763
LeftArm  -1.99978 0.399373 -28.1981
LeftForeArm  175.178 -65.4224 -159.118
LeftHand  -0.289145 -3.04125 4.21755
RightShoulder  4.26443 6.96914 34.8206
RightArm  11.0184 -18.7105 27.7645
RightForeArm  141.294 77.0194 132.408
RightHand  -0.58666 7.85804 -5.49514
LeftUpLeg  -13.9794 -6.07834 19.9871
LeftLeg  28.6617 12.6651 7.72311
LeftFoot  -7.17272 0.688505 -17.5574
LeftToes  1.24767e-006 1.47042e-008 1.32732e-009
64
root  0.16963 38.8526 20.9256 13.6264 -70.3738 -6.55373
RightUpLeg  -12.5246 12.8758 -3.59847
RightLeg  27.4313 0.027987 -0.214491
RightFoot  -19.3638 0.117061 3.39132
RightToes  -2.08645e-008 3.77894e-005 6.81332e-007
Spine  -1.76325 0.699055 -2.68285
Spine1  8.84956 0.407625 1.99981
HEad  -43.9067 41.4076 -21.7311
LeftShoulder1  7.51544 -13.1939 -38.8659
LeftArm  -0.953984 10.0672 -30.3868
LeftForeArm  173.516 -63.4173 -160.673
LeftHand  -0.273402 -3.2708 3.90834
RightShoulder  4.24705 6.94426 34.7519
RightArm  10.2149 -22.2652 28.8876
RightForeArm  145.017 75.998 136.737
RightHand  -0.582281 7.83716 -5.46767
LeftUpLeg  -13.5428 -3.11166 18.8039
LeftLeg  25.6825 13.4942 7.28657
LeftFoot  -0.619035 1.51658 -16.1974
LeftToes  1.24767e-006 1.47042e-008 1.32732e-009
65
root  0.113556 40.2355 20.9942 11.3891 -70.3312 -3.24812
RightUpLeg  -11.3507 10.4486 -5.67265
RightLeg  21.5931 4.18815 1.66453
RightFoot  -10.7178 -0.106594 6.00161
RightToes  -2.08645e-008 3.77894e-005 6.81332e-007
Spine  -2.04817 0.46391 -2.91101
Spine1  8.03428 0.437284 0.924063
HEad  -44.2315 41.4795 -21.9414
LeftShoulder1  7.41674 -13.1362 -38.4474
LeftArm  1.62611 18.9012 -31.2356
LeftForeArm  170.81 -62.8705 -160.841
LeftHand  -0.272685 -3.54148 3.80265
RightShoulder  4.23089 6.90742 34.741
RightArm  9.67282 -27.361 29.4409
RightForeArm  149.896 74.4175 142.148
RightHand  -0.651319 7.8525 -6.06499
LeftUpLeg  -13.9264 0.932487 17.3233
LeftLeg  21.268 9.06157 4.20655
LeftFoot  10.6873 2.62297 -13.8584
LeftToes  1.24767e-006 1.47042e-008 1.32732e-009
66
root  0.056559 41.4273 21.1431 8.81409 -70.9044 0.560608
RightUpLeg  -10.2274 6.01453 -7.60534
RightLeg  15.5513 9.30283 1.83128
RightFoot  -3.35869 -0.875973 12.1821
RightToes  -2.08645e-008 3.77894e-005 6.81332e-007
Spine  -2.97568 0.964425 -3.34715
Spine1  7.31151 1.33353 -0.452219
HEad  -41.7151 41.23 -20.6155
LeftShoulder1  7.21319 -13.0587 -37.4652
LeftArm  4.31613 25.7869 -30.715
LeftForeArm  169.687 -63.445 -160.268
LeftHand  -0.165472 -3.66206 2.38105
RightShoulder  4.27545 6.95732 34.9697
RightArm  9.96863 -31.8225 28.015
RightForeArm  152.823 72.8859 146.065
RightHand  -0.54468 7.36403 -5.30625
LeftUpLeg  -14.3556 4.50029 15.5853
LeftLeg  17.7174 0.420161 0.502526
LeftFoot  18.8234 4.16871 -15.8226
LeftToes  1.24767e-006 1.47042e-008 1.32732e-009
67
root  0.00940636 42.0578 21.2795 5.71422 -71.634 4.91566
RightUpLeg  -10.7542 2.62777 -9.13256
RightLeg  13.6625 8.70161 0.71354
RightFoot  0.66512 -1.68058 16.028
RightToes  -2.08645e-008 3.77894e-005 6.81332e-007
Spine  -3.63844 1.53452 -4.21054
Spine1  6.00122 2.20105 -1.38638
HEad  -39.2333 41.5844 -19.7548
LeftShoulder1  7.01493 -12.9586 -36.5547
LeftArm  6.94148 30.7722 -28.3276
LeftForeArm  168.209 -63.3384 -160.206
LeftHand  -0.0856022 -3.75511 1.34841
RightShoulder  4.33998 7.07594 35.1188
RightArm  12.1978 -34.6429 25.0949
RightForeArm  154.203 71.3078 149.188
RightHand  -0.407566 6.43599 -4.33747
LeftUpLeg  -14.5146 6.3454 14.0517
LeftLeg  15.005 -3.83994 -0.669401
LeftFoot  20.4571 5.30297 -18.9339
LeftToes  1.24767e-006 1.47042e-008 1.32732e-009
68
root  0.0995685 42.1613 21.4393 4.76076 -71.5981 6.17613
RightUpLeg  -11.7618 4.60598 -9.97402
RightLeg  15.9456 1.50096 -0.206784
RightFoot  2.6505 -1.61598 13.3263
RightToes  -2.08645e-008 3.77894e-005 6.81332e-007
Spine  -3.51383 1.78665 -2.6581
Spine1  5.74726 2.84105 -3.53154
HEad  -39.1167 41.6679 -20.3368
LeftShoulder1  6.78541 -12.7448 -35.7218
LeftArm  8.79537 32.3562 -25.4591
LeftForeArm  167.596 -62.9921 -160.424
LeftHand  -0.0950774 -3.70743 1.47403
RightShoulder  4.21031 7.00005 34.1896
RightArm  14.6461 -35.0483 23.5464
RightForeArm  155.654 70.5228 150.662
RightHand  -0.346647 6.73471 -3.66054
LeftUpLeg  -14.5394 6.42715 13.8376
LeftLeg  13.0607 -1.13652 0.431466
LeftFoot  21.1343 4.61116 -16.231
LeftToes  1.24767e-006 1.47042e-008 1.32732e-009
69
root  0.266087 41.6089 21.5949 4.51988 -71.045 5.7123
RightUpLeg  -11.3822 6.4923 -9.9175
RightLeg  18.9494 -2.30574 -1.08853
RightFoot  -0.337478 -0.924427 9.46619
RightToes  -2.08645e-008 3.77894e-005 6.81332e-007
Spine  -2.38164 1.87043 -1.16134
Spine1  5.83661 3.04479 -4.5813
HEad  -39.2587 41.4207 -20.7853
LeftShoulder1  6.58652 -12.5536 -34.9983
LeftArm  8.04844 32.2012 -24.0662
LeftForeArm  168.024 -63.1155 -160.369
LeftHand  -0.0695979 -3.36343 1.16557
RightShoulder  4.02713 6.83001 33.0838
RightArm  16.2166 -33.3816 22.4653
RightForeArm  155.82 70.6601 150.48
RightHand  -0.357985 6.96863 -3.7101
LeftUpLeg  -14.5832 4.31076 14.4459
LeftLeg  13.5668 2.33724 1.71845
LeftFoot  21.3097 3.73361 -13.0901
LeftToes  1.24767e-006 1.47042e-008 1.32732e-009
70
root  0.417443 40.3526 21.7266 3.2317 -70.3797 6.20236
RightUpLeg  -11.0583 7.08702 -10.1316
RightLeg  22.6747 -2.9626 -1.57494
RightFoot  -9.78417 -0.186111 8.77729
RightToes  -2.08645e-008 3.77894e-005 6.81332e-007
Spine  -0.725177 1.5247 -1.16315
Spine1  4.98846 2.54101 -4.19652
HEad  -38.7433 42.0341 -20.6823
LeftShoulder1  6.4769 -12.3997 -34.7109
LeftArm  5.30503 31.446 -23.3307
LeftForeArm  166.302 -63.9004 -159.541
LeftHand  -0.097432 -3.16211 1.55946
RightShoulder  4.07902 6.91192 33.2754
RightArm  17.159 -29.5403 20.6345
RightForeArm  152.38 72.2938 147.148
RightHand  -0.4194 7.15912 -4.22854
LeftUpLeg  -14.9551 -0.120959 15.2929
LeftLeg  17.7124 5.01529 2.21239
LeftFoot  13.5183 3.70434 -17.0795
LeftToes  1.24767e-006 1.47042e-008 1.32732e-009
71
root  0.611258 38.8281 21.9711 3.44614 -70.3771 5.0688
RightUpLeg  -12.2706 7.26076 -10.0453
RightLeg  28.4996 -3.38463 -2.23222
RightFoot  -19.4157 0.452443 8.33261
RightToes  -2.08645e-008 3.77894e-005 6.81332e-007
Spine  0.157632 1.86645 -0.43187
Spine1  5.42441 2.64119 -3.04425
HEad  -38.7983 41.8889 -21.5593
LeftShoulder1  6.98598 -12.8015 -36.7855
LeftArm  2.15744 27.1453 -21.9056
LeftForeArm  163.934 -66.3155 -156.997
LeftHand  -0.278097 -2.54578 4.29268
RightShoulder  3.96696 6.7897 32.6525
RightArm  15.5673 -25.3722 20.8958
RightForeArm  144.982 75.6311 137.812
RightHand  -0.479968 7.66959 -4.62353
LeftUpLeg  -15.3527 -1.70911 15.6417
LeftLeg  23.4659 6.02456 3.19662
LeftFoot  -0.457968 2.1673 -22.1864
LeftToes  1.24767e-006 1.47042e-008 1.32732e-009
